<svg xmlns:dc="http://purl.org/dc/elements/1.1/" xmlns:rdf="http://www.w3.org/1999/02/22-rdf-syntax-ns#" xmlns:svg="http://www.w3.org/2000/svg" xmlns="http://www.w3.org/2000/svg" viewBox="0 0 32 40.00000125" version="1.1" x="0px" y="0px"><g transform="translate(0,-1020.3622)"><path style="color:#000000;font-style:normal;font-variant:normal;font-weight:normal;font-stretch:normal;font-size:medium;line-height:normal;font-family:sans-serif;text-indent:0;text-align:start;text-decoration:none;text-decoration-line:none;text-decoration-style:solid;text-decoration-color:#000000;letter-spacing:normal;word-spacing:normal;text-transform:none;direction:ltr;block-progression:tb;writing-mode:lr-tb;baseline-shift:baseline;text-anchor:start;white-space:normal;clip-rule:nonzero;display:inline;overflow:visible;visibility:visible;opacity:1;isolation:auto;mix-blend-mode:normal;color-interpolation:sRGB;color-interpolation-filters:linearRGB;solid-color:#000000;solid-opacity:1;fill:#000000;fill-opacity:1;fill-rule:nonzero;stroke:none;stroke-width:0.86339206;stroke-linecap:round;stroke-linejoin:round;stroke-miterlimit:4;stroke-dasharray:none;stroke-dashoffset:0;stroke-opacity:1;color-rendering:auto;image-rendering:auto;shape-rendering:auto;text-rendering:auto;enable-background:accumulate" d="M 15.978516 3 A 0.50108583 0.49901633 0 0 0 15.572266 3.2480469 L 8.3203125 15.75 L 1.0683594 28.25 A 0.50108583 0.49901633 0 0 0 1.5039062 28.998047 L 15.998047 28.998047 L 30.496094 28.998047 A 0.50108583 0.49901633 0 0 0 30.996094 28.539062 A 0.50108583 0.49901633 0 0 0 30.931641 28.253906 L 23.683594 15.75 L 16.439453 3.2480469 A 0.50108583 0.49901633 0 0 0 15.978516 3 z M 16.003906 4.4921875 L 22.818359 16.248047 L 29.628906 28.003906 L 29.628906 28.005859 L 16 28.005859 L 2.3730469 27.994141 L 9.1875 16.246094 L 16.003906 4.4921875 z M 15.5 11.830078 L 15.5 20.425781 L 16.5 20.425781 L 16.5 11.830078 L 15.5 11.830078 z M 15.5 22.574219 L 15.5 24.722656 L 16.5 24.722656 L 16.5 22.574219 L 15.5 22.574219 z " transform="translate(0,1020.3622)"/></g><text x="0" y="47.000001" fill="#000000" font-size="5px" font-weight="bold" font-family="'Helvetica Neue', Helvetica, Arial-Unicode, Arial, Sans-serif">Created by Chameleon Design</text><text x="0" y="52.000001" fill="#000000" font-size="5px" font-weight="bold" font-family="'Helvetica Neue', Helvetica, Arial-Unicode, Arial, Sans-serif">from the Noun Project</text></svg>
